<?xml version="1.0" encoding="UTF-8"?>
<svg width="1606px" height="1579px" viewBox="0 0 1606 1579" version="1.1" xmlns="http://www.w3.org/2000/svg" xmlns:xlink="http://www.w3.org/1999/xlink">
    <title>z3t</title>
    <defs>
        <radialGradient cx="6.04149528%" cy="0%" fx="6.04149528%" fy="0%" r="3754.69928%" gradientTransform="translate(0.060415,0.000000),scale(0.983606,1.000000),translate(-0.060415,-0.000000)" id="radialGradient-1">
            <stop stop-color="#74FFFF" offset="0%"></stop>
            <stop stop-color="#3EE3E1" offset="51.951715%"></stop>
            <stop stop-color="#0184B4" offset="100%"></stop>
        </radialGradient>
    </defs>
    <g id="Page-1" stroke="none" stroke-width="1" fill="none" fill-rule="evenodd">
        <g id="z3t" fill="url(#radialGradient-1)" fill-rule="nonzero">
            <path d="M894.82118,534.062696 L894.820729,563.473719 L897.331469,565.291469 L185.164729,1548.93672 L888.244782,1548.9373 L888.244782,1578.9373 L5,1578.9373 L4.99972935,1554.85172 L0.449729347,1551.55863 L715.402729,564.061719 L21.8880455,564.062696 L21.8880455,534.062696 L894.82118,534.062696 Z M861.182729,564.061719 L823.128729,564.061719 L824.826543,565.291469 L112.659729,1548.93672 L148.127729,1548.93672 L861.182729,564.061719 Z M788.678729,564.061719 L752.440729,564.061719 L39.3847293,1548.93672 L75.6227293,1548.93672 L788.678729,564.061719 Z M1555.8,0.199719364 L1555.8,21.1997194 L1552.88473,21.1987194 L1358.8955,121.153787 C1415.73069,135.80437 1466.61645,165.256231 1507.19383,205.152316 L1508.13288,205.162035 L1508.13541,206.081797 C1568.26159,265.672987 1605.5,348.303067 1605.5,439.627689 C1605.5,621.259794 1458.20074,768.5 1276.5,768.5 C1094.79926,768.5 947.5,621.259794 947.5,439.627689 L947.5,439.627689 L968.5,439.627689 C968.5,609.659929 1106.39535,747.5 1276.5,747.5 C1325.79589,747.5 1372.38676,735.923839 1413.70044,715.342767 L1413.70044,163.912612 C1372.38676,143.33154 1325.79589,131.755379 1276.5,131.755379 C1274.91825,131.755379 1273.33845,131.767358 1271.76069,131.791257 L1267.30959,134.08767 L1266.19509,131.925187 C1181.21256,134.728895 1102.56137,172.123993 1046.72495,234.604534 L1046.72495,234.604534 L1031.06651,220.611201 C1074.24621,172.293436 1130.22822,138.012061 1192.29404,121.638511 L1189.09041,115.420282 L1371.93973,21.1987194 L997.219408,21.1997194 L997.219408,0.199719364 L1555.8,0.199719364 Z M1434.70076,175.416776 L1434.70076,703.838603 C1440.18039,700.553241 1445.54936,697.102379 1450.80075,693.492931 L1450.80075,185.762448 C1445.54936,182.153 1440.18039,178.702138 1434.70076,175.416776 Z M1471.80613,201.55614 L1471.80613,677.699239 C1476.57852,673.782784 1481.23104,669.725758 1485.75738,665.53449 L1487.10601,214.977156 C1482.15659,210.339129 1477.05382,205.862651 1471.80613,201.55614 Z M1508.04411,236.601555 L1506.81915,644.040202 C1555.1465,589.672656 1584.5,518.076513 1584.5,439.627689 C1584.5,361.8439 1555.64206,290.7971 1508.04411,236.601555 Z M1407.7499,171.490058 L1409.29497,173.034513 L1408.8001,173.529587 L1407.25502,171.985132 L1407.7499,171.490058 Z M1507.03973,21.1987194 L1486.38473,21.1987194 L1309.42443,112.381625 C1315.00573,112.935975 1320.54599,113.629755 1326.04168,114.459431 L1507.03973,21.1987194 Z M1440.53973,21.1987194 L1417.78473,21.1987194 L1240.11467,112.750508 C1248.8166,111.791275 1257.59807,111.173592 1266.44271,110.906879 L1440.53973,21.1987194 Z" id="Combined-Shape"></path>
        </g>
    </g>
</svg>