<?xml version="1.0" encoding="UTF-8" standalone="no"?>
<svg width="1590px" height="1555px" viewBox="0 0 1590 1555" version="1.1" xmlns="http://www.w3.org/2000/svg" xmlns:xlink="http://www.w3.org/1999/xlink">
    <!-- Generator: Sketch 41.2 (35397) - http://www.bohemiancoding.com/sketch -->
    <title>Artboard Copy 4</title>
    <desc>Created with Sketch.</desc>
    <defs></defs>
    <g id="Page-1" stroke="none" stroke-width="1" fill="none" fill-rule="evenodd">
        <g id="Artboard-Copy-4" fill="#000000">
            <g id="Group-4" transform="translate(0.000000, 538.000000)">
                <polygon id="Path" points="16.8880455 16.0626959 889.82118 16.0626959 889.82118 -13.9373041 16.8880455 -13.9373041"></polygon>
                <polygon id="Path-Copy" points="0 1030.9373 883.244782 1030.9373 883.244782 1000.9373 0 1000.9373"></polygon>
                <g id="Group-3" transform="translate(7.599620, 6.376176)">
                    <polygon id="Path-2" points="716.185425 -8.79659918 -12.1498907 997.182446 12.1498907 1014.77564 740.485206 8.79659918"></polygon>
                    <polygon id="Path-2-Copy" points="787.927141 -6.67790499 59.5918259 999.30114 83.8916072 1016.89434 812.226923 10.9152934"></polygon>
                    <polygon id="Path-2-Copy-2" points="860.432067 -6.67790499 132.096752 999.30114 156.396533 1016.89434 884.731849 10.9152934"></polygon>
                </g>
            </g>
            <g id="Group-2" transform="translate(953.000000, 0.000000)">
                <polygon id="Path-3" points="39.2194079 11.1997194 597.8 11.1997194 597.8 -9.80028064 39.2194079 -9.80028064"></polygon>
                <polygon id="Path-4" points="452.428935 -8.6339747 231.09041 105.420282 240.70959 124.08767 462.048115 10.0334134"></polygon>
                <polygon id="Path-4-Copy" points="521.028935 -8.6339747 299.69041 105.420282 309.30959 124.08767 530.648115 10.0334134"></polygon>
                <polygon id="Path-4-Copy-2" points="587.528935 -8.6339747 366.19041 105.420282 375.80959 124.08767 597.148115 10.0334134"></polygon>
                <path d="M-10.5,429.627689 C-10.5,611.259794 136.79926,758.5 318.5,758.5 C500.20074,758.5 647.5,611.259794 647.5,429.627689 C647.5,247.995585 500.20074,100.755379 318.5,100.755379 C223.547269,100.755379 135.096778,141.199792 73.0665123,210.611201 L88.7249487,224.604534 C146.811738,159.605845 229.589361,121.755379 318.5,121.755379 C488.604645,121.755379 626.5,259.59545 626.5,429.627689 C626.5,599.659929 488.604645,737.5 318.5,737.5 C148.395355,737.5 10.5,599.659929 10.5,429.627689 L-10.5,429.627689 Z" id="Oval-2"></path>
                <polygon id="Line" points="449.255025 161.985132 450.800099 163.529587 451.294975 163.034513 449.749901 161.490058"></polygon>
                <g id="Group" transform="translate(455.700000, 151.839102)">
                    <polygon id="Path-5" points="-2.46913601e-13 6.64806771e-14 2.61124455e-13 553.518385 21 553.518385 21 4.72061607e-14"></polygon>
                    <polygon id="Path-6" points="37.1 13.9013624 37.1 537.152526 58.1 537.152526 58.1 13.9013624"></polygon>
                    <polygon id="Path-7" points="73.4329787 43.2598993 72.036009 508.663269 93.0359144 508.726303 94.4328841 43.3229332"></polygon>
                </g>
            </g>
        </g>
    </g>
</svg>